<?xml version="1.0"?>
<svg xmlns="http://www.w3.org/2000/svg" xmlns:xlink="http://www.w3.org/1999/xlink" xmlns:svgjs="http://svgjs.com/svgjs" version="1.1" width="512" height="512" x="0" y="0" viewBox="0 0 468.16265 468" style="enable-background:new 0 0 512 512" xml:space="preserve"><g><path xmlns="http://www.w3.org/2000/svg" d="m289.378906.0820312h-239.539062c-27.59375.1015628-49.8945315 22.5234378-49.839844 50.1171878v265.75c-.0273438 2.589843.957031 5.089843 2.742188 6.964843l106.75 110.074219c1.863281 1.953125 4.4375 3.070313 7.136718 3.09375h172.75c27.570313 0 49.621094-22.546875 49.621094-50.117187v-335.765625c0-27.570313-22.050781-50.1171878-49.621094-50.1171878zm-182.378906 401.2226568-73.519531-75.222657h63.148437c5.511719 0 10.371094 4.351563 10.371094 9.867188zm212-15.339844c.167969 16.464844-13.042969 29.949218-29.507812 30.117187h-162.492188v-80.132812c0-16.542969-13.832031-29.867188-30.371094-29.867188h-76.628906v-255.882812c-.066406-16.550781 13.289062-30.027344 29.839844-30.117188h239.539062c16.464844.105469 29.726563 13.535157 29.621094 30zm0 0" fill="#ffffff" data-original="#000000" style=""/><path xmlns="http://www.w3.org/2000/svg" d="m267.789062 130.082031h-190.203124c-5.519532 0-10 4.476563-10 10 0 5.523438 4.480468 10 10 10h190.203124c5.519532 0 10-4.476562 10-10 0-5.523437-4.480468-10-10-10zm0 0" fill="#ffffff" data-original="#000000" style=""/><path xmlns="http://www.w3.org/2000/svg" d="m267.789062 190.082031h-190.203124c-5.519532 0-10 4.476563-10 10 0 5.523438 4.480468 10 10 10h190.203124c5.519532 0 10-4.476562 10-10 0-5.523437-4.480468-10-10-10zm0 0" fill="#ffffff" data-original="#000000" style=""/><path xmlns="http://www.w3.org/2000/svg" d="m267.789062 250.082031h-190.203124c-5.519532 0-10 4.476563-10 10 0 5.523438 4.480468 10 10 10h190.203124c5.519532 0 10-4.476562 10-10 0-5.523437-4.480468-10-10-10zm0 0" fill="#ffffff" data-original="#000000" style=""/><path xmlns="http://www.w3.org/2000/svg" d="m77.585938 94.082031h87.816406c5.519531 0 10-4.476562 10-10 0-5.523437-4.480469-10-10-10h-87.816406c-5.519532 0-10 4.476563-10 10 0 5.523438 4.480468 10 10 10zm0 0" fill="#ffffff" data-original="#000000" style=""/><path xmlns="http://www.w3.org/2000/svg" d="m423.449219 9.902344c-24.554688.03125-44.460938 19.921875-44.507813 44.480468l-.199218 302c-.003907 1.605469.382812 3.191407 1.125 4.617188l34.710937 66.761719c1.722656 3.308593 5.144531 5.382812 8.875 5.382812s7.148437-2.074219 8.871094-5.382812l34.710937-66.761719c.742188-1.425781 1.128906-3.011719 1.128906-4.617188l-.203124-302c-.046876-24.558593-19.953126-44.449218-44.511719-44.480468zm24.550781 101.179687h-49.097656l.003906-10h49.085938zm.015625 20 .140625 215h-49.410156l.144531-215zm-24.5625-101.179687c13.523437.019531 24.484375 10.976562 24.511719 24.5l.015625 26.679687h-49.058594l.019531-26.683593c.027344-13.523438 10.988282-24.476563 24.511719-24.496094zm0 371.261718-18.242187-35.082031h36.480468zm0 0" fill="#ffffff" data-original="#000000" style=""/></g></svg>
